<svg width="51" height="51" viewBox="0 0 51 51" fill="none" xmlns="http://www.w3.org/2000/svg">
<path d="M25.5 50.9994C25.4173 50.9994 25.3334 50.9938 25.2484 50.9813C24.5979 50.8833 24.0607 50.4186 23.8714 49.7879L13.6714 15.7883C13.4923 15.1899 13.6555 14.5405 14.0981 14.0985C14.5412 13.6559 15.1946 13.4916 15.7879 13.6718L49.7879 23.8717C50.4186 24.061 50.8838 24.5982 50.9813 25.2487C51.0782 25.9003 50.7903 26.5492 50.2424 26.9147L41.7679 32.5643L50.5013 41.2982C51.1655 41.9623 51.1655 43.0379 50.5013 43.702L43.7013 50.5019C43.0372 51.166 41.9617 51.166 41.2975 50.5019L32.5641 41.768L26.9144 50.2424C26.5965 50.7195 26.0627 50.9994 25.5 50.9994ZM32.3 37.3996C32.7488 37.3996 33.1817 37.5769 33.5019 37.8977L42.5 46.8957L46.8962 42.4995L37.8981 33.5015C37.5377 33.1411 37.3586 32.6391 37.4085 32.1319C37.4584 31.6253 37.7332 31.1675 38.1571 30.8853L45.3503 26.0902L17.8358 17.8356L26.0899 45.3498L30.885 38.1566C31.1672 37.7322 31.6257 37.4579 32.1317 37.4081C32.1884 37.4018 32.2445 37.3996 32.3 37.3996ZM9.7019 9.70179C10.366 9.03767 10.366 7.96214 9.7019 7.29802L6.3019 3.89806C5.63777 3.23393 4.56223 3.23393 3.8981 3.89806C3.23397 4.56218 3.23397 5.6377 3.8981 6.30183L7.2981 9.70179C7.63017 10.0339 8.0648 10.1999 8.5 10.1999C8.9352 10.1999 9.36983 10.0339 9.7019 9.70179ZM8.5 15.2998C8.5 14.3609 7.73897 13.5998 6.8 13.5998H1.7C0.761033 13.5998 0 14.3609 0 15.2998C0 16.2388 0.761033 16.9998 1.7 16.9998H6.8C7.73897 16.9998 8.5 16.2388 8.5 15.2998ZM6.3019 26.7016L9.7019 23.3016C10.366 22.6375 10.366 21.562 9.7019 20.8979C9.03777 20.2337 7.96223 20.2337 7.2981 20.8979L3.8981 24.2978C3.23397 24.962 3.23397 26.0375 3.8981 26.7016C4.23017 27.0337 4.6648 27.1997 5.1 27.1997C5.5352 27.1997 5.96983 27.0337 6.3019 26.7016ZM23.3019 9.70179L26.7019 6.30183C27.366 5.6377 27.366 4.56218 26.7019 3.89806C26.0378 3.23393 24.9622 3.23393 24.2981 3.89806L20.8981 7.29802C20.234 7.96214 20.234 9.03767 20.8981 9.70179C21.2302 10.0339 21.6648 10.1999 22.1 10.1999C22.5352 10.1999 22.9698 10.0339 23.3019 9.70179ZM17 6.79992V1.69998C17 0.761025 16.239 0 15.3 0C14.361 0 13.6 0.761025 13.6 1.69998V6.79992C13.6 7.73888 14.361 8.49991 15.3 8.49991C16.239 8.49991 17 7.73888 17 6.79992Z" fill="white"/>
</svg>
