<svg width="174" height="185" viewBox="0 0 174 185" fill="none" xmlns="http://www.w3.org/2000/svg">
<path d="M170 149C139.614 175.333 63.2739 212.2 1 149" stroke="#00EBEC"/>
<path d="M170 149C139.614 175.333 63.2739 212.2 1 149" stroke="#00EBEC"/>
<path d="M170 149C139.614 175.333 63.2739 212.2 1 149" stroke="#00EBEC"/>
<path d="M170 149C139.614 175.333 63.2739 212.2 1 149" stroke="#00EBEC"/>
<path d="M170 149C139.614 175.333 63.2739 212.2 1 149" stroke="#00EBEC"/>
<path d="M4 31C34.3859 8.36129 110.726 -23.3329 173 31" stroke="#00EBEC"/>
<path d="M4 31C34.3859 8.36129 110.726 -23.3329 173 31" stroke="#00EBEC"/>
<path d="M4 31C34.3859 8.36129 110.726 -23.3329 173 31" stroke="#00EBEC"/>
<path d="M4 31C34.3859 8.36129 110.726 -23.3329 173 31" stroke="#00EBEC"/>
<path d="M4 31C34.3859 8.36129 110.726 -23.3329 173 31" stroke="#00EBEC"/>
</svg>
