<svg width="27" height="30" viewBox="0 0 27 30" fill="none" xmlns="http://www.w3.org/2000/svg">
<path d="M13.2342 0.00500822C13.0272 0.0277547 12.8363 0.127213 12.699 0.283779C12.5617 0.440346 12.488 0.642663 12.4925 0.850854V9.17918C12.4909 9.28954 12.5113 9.39911 12.5525 9.50152C12.5936 9.60394 12.6547 9.69715 12.7322 9.77574C12.8097 9.85434 12.902 9.91675 13.0039 9.95934C13.1057 10.0019 13.215 10.0239 13.3253 10.0239C13.4357 10.0239 13.545 10.0019 13.6468 9.95934C13.7486 9.91675 13.8409 9.85434 13.9184 9.77574C13.9959 9.69715 14.057 9.60394 14.0982 9.50152C14.1393 9.39911 14.1597 9.28954 14.1582 9.17918V0.850854C14.1607 0.732295 14.1379 0.614558 14.0913 0.505517C14.0447 0.396476 13.9753 0.298646 13.8879 0.21857C13.8004 0.138494 13.6968 0.0780182 13.5841 0.0411883C13.4714 0.00435852 13.3521 -0.00797652 13.2342 0.00500822ZM9.18719 4.16917C9.08507 4.16803 8.98362 4.18567 8.88789 4.22122C3.73539 6.05466 0 10.8878 0 16.6747C0 24.0242 5.97581 30 13.3253 30C20.6748 30 26.6506 24.0242 26.6506 16.6747C26.6506 10.8878 22.9153 6.05466 17.7628 4.22122C17.6594 4.18534 17.5499 4.17017 17.4407 4.17658C17.3314 4.18298 17.2245 4.21085 17.126 4.25858C16.9271 4.35498 16.7747 4.52644 16.7022 4.73524C16.6297 4.94404 16.6432 5.17308 16.7396 5.37197C16.836 5.57087 17.0074 5.72332 17.2162 5.7958C21.742 7.40621 24.985 11.6014 24.985 16.6747C24.985 23.124 19.7746 28.3343 13.3253 28.3343C6.87601 28.3343 1.66567 23.124 1.66567 16.6747C1.66567 11.6014 4.90869 7.40621 9.43443 5.7958C9.62342 5.73568 9.78475 5.61011 9.88941 5.44167C9.99408 5.27323 10.0352 5.07297 10.0054 4.87691C9.97561 4.68085 9.87683 4.50185 9.72684 4.37212C9.57685 4.24238 9.3855 4.17042 9.18719 4.16917Z" fill="white"/>
</svg>
